<?xml version="1.0" encoding="UTF-8" standalone="no"?>
<svg width="256" height="256" viewBox="0 0 256 256" xmlns="http://www.w3.org/2000/svg">
  <!-- CLI Command Flow Icon in Bauhaus style -->
  <!-- Background -->
  <rect x="0" y="0" width="256" height="256" fill="#FFFFFF"/>
  
  <!-- Terminal window -->
  <rect x="48" y="48" width="160" height="120" rx="5" ry="5" fill="#000000" stroke="#000000" stroke-width="4"/>
  
  <!-- Terminal header bar -->
  <rect x="48" y="48" width="160" height="20" rx="5" ry="5" fill="#1D71B8" stroke="#000000" stroke-width="2"/>
  
  <!-- Window control dots -->
  <circle cx="63" cy="58" r="5" fill="#DE0000"/>
  <circle cx="78" cy="58" r="5" fill="#FFED00"/>
  <circle cx="93" cy="58" r="5" fill="#FFFFFF"/>
  
  <!-- Command line elements -->
  <!-- Command prompt character -->
  <text x="58" y="88" font-family="monospace" font-size="14" fill="#FFFFFF">$</text>
  
  <!-- Command text as highlighted elements -->
  <rect x="68" y="78" width="20" height="15" fill="#DE0000"/>
  <rect x="93" y="78" width="30" height="15" fill="#1D71B8"/>
  <rect x="128" y="78" width="15" height="15" fill="#FFED00"/>
  
  <!-- Output lines -->
  <rect x="58" y="103" width="100" height="2" fill="#FFFFFF"/>
  <rect x="58" y="113" width="80" height="2" fill="#FFFFFF"/>
  <rect x="58" y="123" width="120" height="2" fill="#FFFFFF"/>
  <rect x="58" y="133" width="60" height="2" fill="#FFFFFF"/>
  <rect x="58" y="143" width="90" height="2" fill="#FFFFFF"/>
  
  <!-- Command flow output/continuation -->
  <rect x="58" y="178" width="140" height="30" rx="5" ry="5" fill="#DE0000" stroke="#000000" stroke-width="2"/>
  
  <!-- Flow arrow connecting terminal to output -->
  <path d="M 128,168 L 128,178" stroke="#000000" stroke-width="4"/>
  <polygon points="118,168 128,158 138,168" fill="#000000"/>
</svg> 