<?xml version="1.0" encoding="UTF-8" standalone="no"?>
<svg width="256" height="256" viewBox="0 0 256 256" xmlns="http://www.w3.org/2000/svg">
  <!-- Component Model Icon in Bauhaus style -->
  <!-- Background -->
  <rect x="0" y="0" width="256" height="256" fill="#FFFFFF"/>
  
  <!-- Central puzzle piece (core) -->
  <path d="M 108,78 L 148,78 L 148,108 
           C 158,108 158,118 148,118 
           L 148,148 L 108,148 L 108,118 
           C 98,118 98,108 108,108 Z" 
        fill="#1D71B8" stroke="#000000" stroke-width="3"/>
  
  <!-- Top puzzle piece -->
  <path d="M 108,28 L 148,28 L 148,78 L 108,78 L 108,48
           C 98,48 98,38 108,38 Z" 
        fill="#DE0000" stroke="#000000" stroke-width="3"/>
  
  <!-- Right puzzle piece -->
  <path d="M 148,78 L 198,78 L 198,118 L 148,118 L 148,108
           C 158,108 158,98 148,98 
           L 178,98 L 178,98 Z" 
        fill="#FFED00" stroke="#000000" stroke-width="3"/>
  
  <!-- Bottom puzzle piece -->
  <path d="M 108,148 L 148,148 L 148,198 L 108,198 L 108,168
           C 98,168 98,178 108,178 Z" 
        fill="#FFFFFF" stroke="#000000" stroke-width="3"/>
  
  <!-- Left puzzle piece -->
  <path d="M 58,78 L 108,78 L 108,118 L 58,118 L 58,108
           C 68,108 68,98 58,98 
           L 78,98 L 78,98 Z" 
        fill="#DE0000" stroke="#000000" stroke-width="3"/>
  
  <!-- Component symbols -->
  <!-- Core symbol (interface) -->
  <circle cx="128" cy="113" r="15" fill="#FFFFFF" stroke="#000000" stroke-width="2"/>
  <line x1="128" y1="98" x2="128" y2="128" stroke="#000000" stroke-width="2"/>
  <line x1="113" y1="113" x2="143" y2="113" stroke="#000000" stroke-width="2"/>
  
  <!-- Top symbol (imports) -->
  <polygon points="128,40 118,55 138,55" fill="#FFFFFF" stroke="#000000" stroke-width="2"/>
  <line x1="128" y1="55" x2="128" y2="65" stroke="#000000" stroke-width="2"/>
  
  <!-- Right symbol (types) -->
  <rect x="168" y="98" width="10" height="20" fill="#FFFFFF" stroke="#000000" stroke-width="2"/>
  <rect x="178" y="98" width="10" height="10" fill="#FFFFFF" stroke="#000000" stroke-width="2"/>
  <rect x="178" y="108" width="10" height="10" fill="#000000" stroke="#000000" stroke-width="2"/>
  
  <!-- Bottom symbol (exports) -->
  <polygon points="128,186 118,171 138,171" fill="#000000" stroke="#000000" stroke-width="2"/>
  <line x1="128" y1="171" x2="128" y2="161" stroke="#000000" stroke-width="2"/>
  
  <!-- Left symbol (functions) -->
  <rect x="68" y="103" width="20" height="10" rx="5" ry="5" fill="#FFFFFF" stroke="#000000" stroke-width="2"/>
</svg> 