<?xml version="1.0" encoding="UTF-8" standalone="no"?>
<svg width="256" height="256" viewBox="0 0 256 256" xmlns="http://www.w3.org/2000/svg">
  <!-- Interface Type Conversion Icon in Bauhaus style -->
  <!-- Background -->
  <rect x="0" y="0" width="256" height="256" fill="#FFFFFF"/>
  
  <!-- Host Type (left side) -->
  <circle cx="68" cy="128" r="40" fill="#DE0000" stroke="#000000" stroke-width="4"/>
  
  <!-- Component Type (right side) -->
  <circle cx="188" cy="128" r="40" fill="#1D71B8" stroke="#000000" stroke-width="4"/>
  
  <!-- Bidirectional arrow -->
  <line x1="108" y1="128" x2="148" y2="128" stroke="#000000" stroke-width="6"/>
  
  <!-- Arrow heads -->
  <polygon points="112,118 102,128 112,138" fill="#000000"/>
  <polygon points="144,118 154,128 144,138" fill="#000000"/>
  
  <!-- Type symbols inside the circles -->
  <!-- Host type simplified to square -->
  <rect x="53" y="113" width="30" height="30" fill="#FFFFFF" stroke="#000000" stroke-width="2"/>
  
  <!-- Component type simplified to hexagon -->
  <polygon points="188,108 208,118 208,138 188,148 168,138 168,118" 
           fill="#FFFFFF" stroke="#000000" stroke-width="2"/>
  
  <!-- Interface representation as conversion layer -->
  <rect x="118" y="108" width="20" height="40" fill="#FFED00" stroke="#000000" stroke-width="2"/>
  <line x1="118" y1="118" x2="138" y2="118" stroke="#000000" stroke-width="1"/>
  <line x1="118" y1="128" x2="138" y2="128" stroke="#000000" stroke-width="1"/>
  <line x1="118" y1="138" x2="138" y2="138" stroke="#000000" stroke-width="1"/>
</svg> 