<?xml version="1.0" encoding="UTF-8" standalone="no"?>
<svg
   xmlns:svg="http://www.w3.org/2000/svg"
   xmlns="http://www.w3.org/2000/svg"
   width="64"
   height="64"
   viewBox="0 0 16.933 16.933"
   version="1.1">
  <g>
    <!-- Gauge background circle -->
    <circle
       style="fill:#e6e6e6;stroke:#333333;stroke-width:0.5;stroke-miterlimit:4"
       cx="8.467"
       cy="8.467"
       r="7.5" />

    <!-- Gauge meter -->
    <path
       style="fill:#4d4d4d;stroke:#333333;stroke-width:0.3;stroke-miterlimit:4"
       d="M 8.467,8.467 L 3.175,12.7"
       />

    <!-- Gauge ticks -->
    <path
       style="fill:none;stroke:#333333;stroke-width:0.4;stroke-miterlimit:4"
       d="M 12.7,8.467 L 14.287,8.467 
          M 4.233,8.467 L 2.646,8.467
          M 8.467,4.233 L 8.467,2.646
          M 8.467,12.7 L 8.467,14.288
          M 11.113,5.821 L 12.277,4.656
          M 5.821,5.821 L 4.656,4.656
          M 11.113,11.113 L 12.277,12.277
          M 5.821,11.113 L 4.656,12.277"
       />

    <!-- CPU/Resource icon -->
    <rect
       style="fill:#5599ff;stroke:#333333;stroke-width:0.4;stroke-miterlimit:4"
       width="4"
       height="4"
       x="6.467"
       y="6.467" />

    <!-- Resource grid lines -->
    <path
       style="fill:none;stroke:#333333;stroke-width:0.2;stroke-miterlimit:4"
       d="M 6.467,7.467 L 10.467,7.467
          M 6.467,8.467 L 10.467,8.467
          M 6.467,9.467 L 10.467,9.467
          M 7.467,6.467 L 7.467,10.467
          M 8.467,6.467 L 8.467,10.467
          M 9.467,6.467 L 9.467,10.467"
       />
  </g>
</svg> 