<?xml version="1.0" encoding="UTF-8" standalone="no"?>
<svg width="256" height="256" viewBox="0 0 256 256" xmlns="http://www.w3.org/2000/svg">
  <!-- Safety Features Icon in Bauhaus style -->
  <!-- Background -->
  <rect x="0" y="0" width="256" height="256" fill="#FFFFFF"/>
  
  <!-- Shield outline -->
  <path d="M 128,28 
           L 208,68
           L 208,138
           A 100,100 0 0 1 128,228
           A 100,100 0 0 1 48,138
           L 48,68 Z" 
        fill="#FFFFFF" stroke="#000000" stroke-width="6"/>
  
  <!-- Shield sections -->
  <path d="M 128,38
           L 198,73
           L 198,138
           A 90,90 0 0 1 128,218
           L 128,38 Z"
        fill="#1D71B8" stroke="none"/>
  
  <path d="M 128,38
           L 58,73
           L 58,138
           A 90,90 0 0 1 128,218
           L 128,38 Z"
        fill="#DE0000" stroke="none"/>
  
  <!-- Safety features represented by geometric shapes -->
  <!-- Memory safety (circle) -->
  <circle cx="96" cy="98" r="20" fill="#FFFFFF" stroke="#000000" stroke-width="2"/>
  <path d="M 86,98 L 106,98 M 96,88 L 96,108" stroke="#000000" stroke-width="2"/>
  
  <!-- Bounded execution (square) -->
  <rect x="148" y="78" width="20" height="20" fill="#FFFFFF" stroke="#000000" stroke-width="2"/>
  <rect x="152" y="82" width="12" height="12" fill="#FFED00"/>
  
  <!-- Type safety (triangle) -->
  <polygon points="96,158 76,178 116,178" fill="#FFFFFF" stroke="#000000" stroke-width="2"/>
  
  <!-- Resource management (diamond) -->
  <polygon points="158,158 148,168 158,178 168,168" fill="#FFFFFF" stroke="#000000" stroke-width="2"/>
  
  <!-- Center WRT logo -->
  <circle cx="128" cy="138" r="20" fill="#FFED00" stroke="#000000" stroke-width="3"/>
</svg> 