<?xml version="1.0" encoding="UTF-8" standalone="no"?>
<svg width="256" height="256" viewBox="0 0 256 256" xmlns="http://www.w3.org/2000/svg">
  <!-- Stackless Engine Icon in Bauhaus style -->
  <!-- Background -->
  <rect x="0" y="0" width="256" height="256" fill="#FFFFFF"/>
  
  <!-- Dividing line between state machine and stack -->
  <line x1="10" y1="128" x2="246" y2="128" stroke="#000000" stroke-width="4"/>
  
  <!-- State Machine (Stackless) - Top Half -->
  <!-- State nodes -->
  <circle cx="64" cy="70" r="20" fill="#DE0000" stroke="#000000" stroke-width="2"/>
  <circle cx="128" cy="70" r="20" fill="#1D71B8" stroke="#000000" stroke-width="2"/>
  <circle cx="192" cy="70" r="20" fill="#FFED00" stroke="#000000" stroke-width="2"/>
  
  <!-- State transitions -->
  <path d="M 84,70 L 108,70" stroke="#000000" stroke-width="2"/>
  <polygon points="106,66 116,70 106,74" fill="#000000"/>
  
  <path d="M 148,70 L 172,70" stroke="#000000" stroke-width="2"/>
  <polygon points="170,66 180,70 170,74" fill="#000000"/>
  
  <path d="M 192,90 A 40,30 0 0 1 150,105" stroke="#000000" stroke-width="2"/>
  <polygon points="152,109 143,111 149,100" fill="#000000"/>
  
  <path d="M 106,105 A 40,30 0 0 1 64,90" stroke="#000000" stroke-width="2"/>
  <polygon points="107,100 113,111 104,109" fill="#000000"/>
  
  <!-- Traditional Stack - Bottom Half -->
  <!-- Stack representation -->
  <rect x="78" y="170" width="100" height="20" fill="#DE0000" stroke="#000000" stroke-width="2"/>
  <rect x="78" y="190" width="100" height="20" fill="#1D71B8" stroke="#000000" stroke-width="2"/>
  <rect x="78" y="210" width="100" height="20" fill="#FFED00" stroke="#000000" stroke-width="2"/>
  
  <!-- Stack pointer -->
  <path d="M 58,180 L 78,180" stroke="#000000" stroke-width="2"/>
  <polygon points="76,176 86,180 76,184" fill="#000000"/>
</svg> 