<?xml version="1.0" encoding="UTF-8" standalone="no"?>
<svg width="256" height="256" viewBox="0 0 256 256" xmlns="http://www.w3.org/2000/svg">
  <!-- WASI Interface Icon in Bauhaus style -->
  <!-- Background -->
  <rect x="0" y="0" width="256" height="256" fill="#FFFFFF"/>
  
  <!-- WebAssembly Module (left side) -->
  <rect x="28" y="68" width="80" height="120" fill="#1D71B8" stroke="#000000" stroke-width="4"/>
  
  <!-- Host System (right side) -->
  <rect x="148" y="68" width="80" height="120" fill="#DE0000" stroke="#000000" stroke-width="4"/>
  
  <!-- Bridge structure (WASI) -->
  <rect x="98" y="98" width="60" height="60" fill="#FFED00" stroke="#000000" stroke-width="4"/>
  
  <!-- Connection lines from WebAssembly to WASI -->
  <line x1="68" y1="98" x2="98" y2="108" stroke="#000000" stroke-width="3"/>
  <line x1="68" y1="128" x2="98" y2="128" stroke="#000000" stroke-width="3"/>
  <line x1="68" y1="158" x2="98" y2="148" stroke="#000000" stroke-width="3"/>
  
  <!-- Connection lines from WASI to Host -->
  <line x1="158" y1="108" x2="188" y2="98" stroke="#000000" stroke-width="3"/>
  <line x1="158" y1="128" x2="188" y2="128" stroke="#000000" stroke-width="3"/>
  <line x1="158" y1="148" x2="188" y2="158" stroke="#000000" stroke-width="3"/>
  
  <!-- WASI function symbol -->
  <circle cx="128" cy="108" r="10" fill="#FFFFFF" stroke="#000000" stroke-width="2"/>
  <path d="M 123,104 L 133,104 L 133,112 L 123,112 Z" fill="none" stroke="#000000" stroke-width="1"/>
  
  <!-- WASI logging symbol -->
  <path d="M 123,128 L 133,128 M 123,124 L 133,124 M 123,132 L 133,132" stroke="#000000" stroke-width="1"/>
  
  <!-- WASI memory symbol -->
  <rect x="123" y="143" width="10" height="10" fill="#FFFFFF" stroke="#000000" stroke-width="1"/>
  <path d="M 123,143 L 133,153 M 133,143 L 123,153" stroke="#000000" stroke-width="1"/>
  
  <!-- Dataflow indicators -->
  <polygon points="93,108 98,108 95.5,112" fill="#000000"/>
  <polygon points="93,128 98,128 95.5,132" fill="#000000"/>
  <polygon points="93,148 98,148 95.5,152" fill="#000000"/>
  
  <polygon points="158,108 163,108 160.5,104" fill="#000000"/>
  <polygon points="158,128 163,128 160.5,124" fill="#000000"/>
  <polygon points="158,148 163,148 160.5,144" fill="#000000"/>
</svg> 